<mxfile host="app.diagrams.net" agent="Mozilla/5.0 (Windows NT 10.0; Win64; x64) AppleWebKit/537.36 (KHTML, like Gecko) Chrome/135.0.0.0 Safari/537.36" version="26.2.14">
  <diagram name="Page-1" id="0783ab3e-0a74-02c8-0abd-f7b4e66b4bec">
    <mxGraphModel dx="1426" dy="777" grid="1" gridSize="10" guides="1" tooltips="1" connect="1" arrows="1" fold="1" page="1" pageScale="1" pageWidth="850" pageHeight="1100" background="none" math="0" shadow="0">
      <root>
        <mxCell id="0" />
        <mxCell id="1" parent="0" />
        <mxCell id="1c1d494c118603dd-1" value="&lt;p data-pm-slice=&quot;0 0 []&quot;&gt;&lt;span style=&quot;font-size:11.0pt;line-height:107%;&lt;br/&gt;font-family:&amp;quot;Arial&amp;quot;,sans-serif;mso-fareast-font-family:Calibri;mso-fareast-theme-font:&lt;br/&gt;minor-latin;mso-ansi-language:EN-US;mso-fareast-language:EN-US;mso-bidi-language:&lt;br/&gt;AR-SA&quot;&gt;Provide Educational Materials and Track Adherence&lt;/span&gt;&lt;/p&gt;" style="swimlane;html=1;childLayout=stackLayout;startSize=20;rounded=0;shadow=0;comic=0;labelBackgroundColor=none;strokeWidth=1;fontFamily=Verdana;fontSize=12;align=center;" parent="1" vertex="1">
          <mxGeometry x="40" y="20" width="750" height="990" as="geometry" />
        </mxCell>
        <mxCell id="1c1d494c118603dd-2" value="System" style="swimlane;html=1;startSize=20;" parent="1c1d494c118603dd-1" vertex="1">
          <mxGeometry y="20" width="260" height="970" as="geometry" />
        </mxCell>
        <mxCell id="E_MisQqpZ38DkiACrcF2-5" value="" style="ellipse;whiteSpace=wrap;html=1;rounded=0;shadow=0;comic=0;labelBackgroundColor=none;strokeWidth=1;fillColor=#000000;fontFamily=Verdana;fontSize=12;align=center;" vertex="1" parent="1c1d494c118603dd-2">
          <mxGeometry x="90" y="40" width="40" height="40" as="geometry" />
        </mxCell>
        <mxCell id="E_MisQqpZ38DkiACrcF2-210" value="Show log in page" style="rounded=1;whiteSpace=wrap;html=1;" vertex="1" parent="1c1d494c118603dd-2">
          <mxGeometry x="50" y="110" width="120" height="20" as="geometry" />
        </mxCell>
        <mxCell id="E_MisQqpZ38DkiACrcF2-209" style="edgeStyle=orthogonalEdgeStyle;rounded=0;orthogonalLoop=1;jettySize=auto;html=1;" edge="1" parent="1c1d494c118603dd-2" source="E_MisQqpZ38DkiACrcF2-5" target="E_MisQqpZ38DkiACrcF2-210">
          <mxGeometry relative="1" as="geometry">
            <mxPoint x="150" y="90" as="targetPoint" />
          </mxGeometry>
        </mxCell>
        <mxCell id="E_MisQqpZ38DkiACrcF2-215" value="Are credentials correct?" style="rhombus;whiteSpace=wrap;html=1;" vertex="1" parent="1c1d494c118603dd-2">
          <mxGeometry x="150" y="150" width="80" height="80" as="geometry" />
        </mxCell>
        <mxCell id="E_MisQqpZ38DkiACrcF2-218" value="shows Dashboard" style="rounded=1;whiteSpace=wrap;html=1;" vertex="1" parent="1c1d494c118603dd-2">
          <mxGeometry x="100" y="260" width="120" height="40" as="geometry" />
        </mxCell>
        <mxCell id="E_MisQqpZ38DkiACrcF2-216" style="edgeStyle=orthogonalEdgeStyle;rounded=0;orthogonalLoop=1;jettySize=auto;html=1;" edge="1" parent="1c1d494c118603dd-2" source="E_MisQqpZ38DkiACrcF2-215" target="E_MisQqpZ38DkiACrcF2-218">
          <mxGeometry relative="1" as="geometry">
            <mxPoint x="180" y="270" as="targetPoint" />
          </mxGeometry>
        </mxCell>
        <mxCell id="E_MisQqpZ38DkiACrcF2-219" value="Yes" style="edgeLabel;html=1;align=center;verticalAlign=middle;resizable=0;points=[];" vertex="1" connectable="0" parent="E_MisQqpZ38DkiACrcF2-216">
          <mxGeometry x="-0.4333" y="-2" relative="1" as="geometry">
            <mxPoint as="offset" />
          </mxGeometry>
        </mxCell>
        <mxCell id="E_MisQqpZ38DkiACrcF2-220" style="edgeStyle=orthogonalEdgeStyle;rounded=0;orthogonalLoop=1;jettySize=auto;html=1;entryX=0.325;entryY=1.05;entryDx=0;entryDy=0;entryPerimeter=0;exitX=0;exitY=0.5;exitDx=0;exitDy=0;" edge="1" parent="1c1d494c118603dd-2" source="E_MisQqpZ38DkiACrcF2-215" target="E_MisQqpZ38DkiACrcF2-210">
          <mxGeometry relative="1" as="geometry" />
        </mxCell>
        <mxCell id="E_MisQqpZ38DkiACrcF2-221" value="No" style="edgeLabel;html=1;align=center;verticalAlign=middle;resizable=0;points=[];" vertex="1" connectable="0" parent="E_MisQqpZ38DkiACrcF2-220">
          <mxGeometry x="-0.1333" y="-2" relative="1" as="geometry">
            <mxPoint as="offset" />
          </mxGeometry>
        </mxCell>
        <mxCell id="E_MisQqpZ38DkiACrcF2-225" value="Shows patient list&lt;div&gt;with adherence status&amp;nbsp;&lt;/div&gt;" style="rounded=1;whiteSpace=wrap;html=1;" vertex="1" parent="1c1d494c118603dd-2">
          <mxGeometry x="20" y="330" width="120" height="50" as="geometry" />
        </mxCell>
        <mxCell id="E_MisQqpZ38DkiACrcF2-229" value="Displays dietary plan&lt;div&gt;and progress summary&amp;nbsp;&lt;/div&gt;" style="rounded=1;whiteSpace=wrap;html=1;" vertex="1" parent="1c1d494c118603dd-2">
          <mxGeometry x="40" y="400" width="120" height="60" as="geometry" />
        </mxCell>
        <mxCell id="E_MisQqpZ38DkiACrcF2-236" value="Enables tracking:&lt;div&gt;- meal logs&lt;/div&gt;&lt;div&gt;- progress check-ins&amp;nbsp;&lt;/div&gt;" style="rounded=1;whiteSpace=wrap;html=1;" vertex="1" parent="1c1d494c118603dd-2">
          <mxGeometry x="50" y="560" width="120" height="60" as="geometry" />
        </mxCell>
        <mxCell id="E_MisQqpZ38DkiACrcF2-247" value="Logs changes with timestamp" style="rounded=1;whiteSpace=wrap;html=1;" vertex="1" parent="1c1d494c118603dd-2">
          <mxGeometry x="70" y="780" width="120" height="60" as="geometry" />
        </mxCell>
        <mxCell id="E_MisQqpZ38DkiACrcF2-169" value="&lt;b&gt;&lt;span style=&quot;font-size:11.0pt;line-height:107%;&lt;br/&gt;font-family:&amp;quot;Arial&amp;quot;,sans-serif;mso-fareast-font-family:Calibri;mso-fareast-theme-font:&lt;br/&gt;minor-latin;mso-ansi-language:EN-US;mso-fareast-language:EN-US;mso-bidi-language:&lt;br/&gt;AR-SA&quot;&gt;Nutritionist&lt;/span&gt;&lt;/b&gt;" style="swimlane;html=1;startSize=20;" vertex="1" parent="1c1d494c118603dd-1">
          <mxGeometry x="260" y="20" width="260" height="970" as="geometry" />
        </mxCell>
        <mxCell id="E_MisQqpZ38DkiACrcF2-212" value="Put credentials" style="rounded=1;whiteSpace=wrap;html=1;" vertex="1" parent="E_MisQqpZ38DkiACrcF2-169">
          <mxGeometry x="40" y="50" width="120" height="40" as="geometry" />
        </mxCell>
        <mxCell id="E_MisQqpZ38DkiACrcF2-223" value="Navigates to&amp;nbsp;&quot;Patient Engagement&quot;" style="rounded=1;whiteSpace=wrap;html=1;" vertex="1" parent="E_MisQqpZ38DkiACrcF2-169">
          <mxGeometry x="55" y="120" width="120" height="60" as="geometry" />
        </mxCell>
        <mxCell id="E_MisQqpZ38DkiACrcF2-227" value="Selects patient" style="rounded=1;whiteSpace=wrap;html=1;" vertex="1" parent="E_MisQqpZ38DkiACrcF2-169">
          <mxGeometry x="40" y="325" width="120" height="60" as="geometry" />
        </mxCell>
        <mxCell id="E_MisQqpZ38DkiACrcF2-231" value="Uploads educational&lt;div&gt;materials (PDF/video)&lt;/div&gt;" style="rounded=1;whiteSpace=wrap;html=1;" vertex="1" parent="E_MisQqpZ38DkiACrcF2-169">
          <mxGeometry x="40" y="410" width="120" height="60" as="geometry" />
        </mxCell>
        <mxCell id="E_MisQqpZ38DkiACrcF2-245" value="Adjusts dietary planif needed&amp;nbsp;&amp;nbsp;" style="rounded=1;whiteSpace=wrap;html=1;" vertex="1" parent="E_MisQqpZ38DkiACrcF2-169">
          <mxGeometry x="40" y="800" width="120" height="40" as="geometry" />
        </mxCell>
        <mxCell id="E_MisQqpZ38DkiACrcF2-211" style="edgeStyle=orthogonalEdgeStyle;rounded=0;orthogonalLoop=1;jettySize=auto;html=1;entryX=0;entryY=0.75;entryDx=0;entryDy=0;" edge="1" parent="1c1d494c118603dd-1" source="E_MisQqpZ38DkiACrcF2-210" target="E_MisQqpZ38DkiACrcF2-212">
          <mxGeometry relative="1" as="geometry">
            <mxPoint x="280" y="90" as="targetPoint" />
          </mxGeometry>
        </mxCell>
        <mxCell id="E_MisQqpZ38DkiACrcF2-213" style="edgeStyle=orthogonalEdgeStyle;rounded=0;orthogonalLoop=1;jettySize=auto;html=1;" edge="1" parent="1c1d494c118603dd-1" source="E_MisQqpZ38DkiACrcF2-212" target="E_MisQqpZ38DkiACrcF2-215">
          <mxGeometry relative="1" as="geometry">
            <mxPoint x="130" y="190" as="targetPoint" />
          </mxGeometry>
        </mxCell>
        <mxCell id="E_MisQqpZ38DkiACrcF2-222" style="edgeStyle=orthogonalEdgeStyle;rounded=0;orthogonalLoop=1;jettySize=auto;html=1;entryX=0;entryY=0.5;entryDx=0;entryDy=0;" edge="1" parent="1c1d494c118603dd-1" source="E_MisQqpZ38DkiACrcF2-218" target="E_MisQqpZ38DkiACrcF2-223">
          <mxGeometry relative="1" as="geometry">
            <mxPoint x="290" y="170" as="targetPoint" />
          </mxGeometry>
        </mxCell>
        <mxCell id="E_MisQqpZ38DkiACrcF2-224" style="edgeStyle=orthogonalEdgeStyle;rounded=0;orthogonalLoop=1;jettySize=auto;html=1;" edge="1" parent="1c1d494c118603dd-1" source="E_MisQqpZ38DkiACrcF2-223" target="E_MisQqpZ38DkiACrcF2-225">
          <mxGeometry relative="1" as="geometry">
            <mxPoint x="60" y="350" as="targetPoint" />
            <Array as="points">
              <mxPoint x="375" y="330" />
              <mxPoint x="61" y="330" />
            </Array>
          </mxGeometry>
        </mxCell>
        <mxCell id="E_MisQqpZ38DkiACrcF2-226" style="edgeStyle=orthogonalEdgeStyle;rounded=0;orthogonalLoop=1;jettySize=auto;html=1;" edge="1" parent="1c1d494c118603dd-1" source="E_MisQqpZ38DkiACrcF2-225" target="E_MisQqpZ38DkiACrcF2-227">
          <mxGeometry relative="1" as="geometry">
            <mxPoint x="300" y="370" as="targetPoint" />
          </mxGeometry>
        </mxCell>
        <mxCell id="E_MisQqpZ38DkiACrcF2-228" style="edgeStyle=orthogonalEdgeStyle;rounded=0;orthogonalLoop=1;jettySize=auto;html=1;" edge="1" parent="1c1d494c118603dd-1" source="E_MisQqpZ38DkiACrcF2-227" target="E_MisQqpZ38DkiACrcF2-229">
          <mxGeometry relative="1" as="geometry">
            <mxPoint x="90" y="430" as="targetPoint" />
            <Array as="points">
              <mxPoint x="360" y="410" />
              <mxPoint x="91" y="410" />
            </Array>
          </mxGeometry>
        </mxCell>
        <mxCell id="E_MisQqpZ38DkiACrcF2-230" style="edgeStyle=orthogonalEdgeStyle;rounded=0;orthogonalLoop=1;jettySize=auto;html=1;" edge="1" parent="1c1d494c118603dd-1" source="E_MisQqpZ38DkiACrcF2-229" target="E_MisQqpZ38DkiACrcF2-231">
          <mxGeometry relative="1" as="geometry">
            <mxPoint x="300" y="450" as="targetPoint" />
          </mxGeometry>
        </mxCell>
        <mxCell id="E_MisQqpZ38DkiACrcF2-246" style="edgeStyle=orthogonalEdgeStyle;rounded=0;orthogonalLoop=1;jettySize=auto;html=1;" edge="1" parent="1c1d494c118603dd-1" source="E_MisQqpZ38DkiACrcF2-245" target="E_MisQqpZ38DkiACrcF2-247">
          <mxGeometry relative="1" as="geometry">
            <mxPoint x="170" y="840" as="targetPoint" />
          </mxGeometry>
        </mxCell>
        <mxCell id="E_MisQqpZ38DkiACrcF2-189" value="&lt;b&gt;&lt;span style=&quot;font-size:11.0pt;line-height:107%;&lt;br/&gt;font-family:&amp;quot;Arial&amp;quot;,sans-serif;mso-fareast-font-family:Calibri;mso-fareast-theme-font:&lt;br/&gt;minor-latin;mso-ansi-language:EN-US;mso-fareast-language:EN-US;mso-bidi-language:&lt;br/&gt;AR-SA&quot;&gt;Patient&lt;/span&gt;&lt;/b&gt;" style="swimlane;html=1;startSize=20;" vertex="1" parent="1">
          <mxGeometry x="560" y="40" width="230" height="970" as="geometry" />
        </mxCell>
        <mxCell id="E_MisQqpZ38DkiACrcF2-235" value="Receives content" style="rounded=1;whiteSpace=wrap;html=1;" vertex="1" parent="E_MisQqpZ38DkiACrcF2-189">
          <mxGeometry x="30" y="480" width="120" height="60" as="geometry" />
        </mxCell>
        <mxCell id="E_MisQqpZ38DkiACrcF2-234" style="edgeStyle=orthogonalEdgeStyle;rounded=0;orthogonalLoop=1;jettySize=auto;html=1;" edge="1" parent="1" source="E_MisQqpZ38DkiACrcF2-233" target="E_MisQqpZ38DkiACrcF2-235">
          <mxGeometry relative="1" as="geometry">
            <mxPoint x="600" y="550" as="targetPoint" />
          </mxGeometry>
        </mxCell>
        <mxCell id="E_MisQqpZ38DkiACrcF2-233" value="Sends materials via&lt;div&gt;portal/app&amp;nbsp;&amp;nbsp;&lt;/div&gt;" style="rounded=1;whiteSpace=wrap;html=1;" vertex="1" parent="1">
          <mxGeometry x="80" y="520" width="120" height="60" as="geometry" />
        </mxCell>
        <mxCell id="E_MisQqpZ38DkiACrcF2-232" style="edgeStyle=orthogonalEdgeStyle;rounded=0;orthogonalLoop=1;jettySize=auto;html=1;" edge="1" parent="1" source="E_MisQqpZ38DkiACrcF2-231" target="E_MisQqpZ38DkiACrcF2-233">
          <mxGeometry relative="1" as="geometry">
            <mxPoint x="140" y="550" as="targetPoint" />
            <Array as="points">
              <mxPoint x="400" y="520" />
              <mxPoint x="141" y="520" />
            </Array>
          </mxGeometry>
        </mxCell>
        <mxCell id="E_MisQqpZ38DkiACrcF2-237" style="edgeStyle=orthogonalEdgeStyle;rounded=0;orthogonalLoop=1;jettySize=auto;html=1;entryX=1;entryY=0.5;entryDx=0;entryDy=0;" edge="1" parent="1" source="E_MisQqpZ38DkiACrcF2-235" target="E_MisQqpZ38DkiACrcF2-236">
          <mxGeometry relative="1" as="geometry">
            <Array as="points">
              <mxPoint x="650" y="590" />
              <mxPoint x="400" y="590" />
              <mxPoint x="400" y="630" />
            </Array>
          </mxGeometry>
        </mxCell>
        <mxCell id="E_MisQqpZ38DkiACrcF2-240" style="edgeStyle=orthogonalEdgeStyle;rounded=0;orthogonalLoop=1;jettySize=auto;html=1;" edge="1" parent="1" source="E_MisQqpZ38DkiACrcF2-239" target="E_MisQqpZ38DkiACrcF2-241">
          <mxGeometry relative="1" as="geometry">
            <mxPoint x="150" y="720" as="targetPoint" />
          </mxGeometry>
        </mxCell>
        <mxCell id="E_MisQqpZ38DkiACrcF2-239" value="Logs meals, symptoms" style="rounded=1;whiteSpace=wrap;html=1;" vertex="1" parent="1">
          <mxGeometry x="600" y="650" width="120" height="60" as="geometry" />
        </mxCell>
        <mxCell id="E_MisQqpZ38DkiACrcF2-238" style="edgeStyle=orthogonalEdgeStyle;rounded=0;orthogonalLoop=1;jettySize=auto;html=1;" edge="1" parent="1" source="E_MisQqpZ38DkiACrcF2-236" target="E_MisQqpZ38DkiACrcF2-239">
          <mxGeometry relative="1" as="geometry">
            <mxPoint x="660" y="680" as="targetPoint" />
            <Array as="points">
              <mxPoint x="150" y="670" />
              <mxPoint x="661" y="670" />
            </Array>
          </mxGeometry>
        </mxCell>
        <mxCell id="E_MisQqpZ38DkiACrcF2-242" style="edgeStyle=orthogonalEdgeStyle;rounded=0;orthogonalLoop=1;jettySize=auto;html=1;" edge="1" parent="1" source="E_MisQqpZ38DkiACrcF2-241" target="E_MisQqpZ38DkiACrcF2-243">
          <mxGeometry relative="1" as="geometry">
            <mxPoint x="400" y="780" as="targetPoint" />
            <Array as="points">
              <mxPoint x="150" y="760" />
              <mxPoint x="401" y="760" />
            </Array>
          </mxGeometry>
        </mxCell>
        <mxCell id="E_MisQqpZ38DkiACrcF2-241" value="Collects adherence&lt;div&gt;data + updates logs&lt;/div&gt;" style="rounded=1;whiteSpace=wrap;html=1;" vertex="1" parent="1">
          <mxGeometry x="90" y="690" width="120" height="60" as="geometry" />
        </mxCell>
        <mxCell id="E_MisQqpZ38DkiACrcF2-244" style="edgeStyle=orthogonalEdgeStyle;rounded=0;orthogonalLoop=1;jettySize=auto;html=1;" edge="1" parent="1" source="E_MisQqpZ38DkiACrcF2-243" target="E_MisQqpZ38DkiACrcF2-245">
          <mxGeometry relative="1" as="geometry">
            <mxPoint x="400" y="840" as="targetPoint" />
          </mxGeometry>
        </mxCell>
        <mxCell id="E_MisQqpZ38DkiACrcF2-243" value="Reviews adherence&amp;nbsp;logs&amp;nbsp; &amp;nbsp;" style="rounded=1;whiteSpace=wrap;html=1;" vertex="1" parent="1">
          <mxGeometry x="340" y="750" width="120" height="60" as="geometry" />
        </mxCell>
        <mxCell id="E_MisQqpZ38DkiACrcF2-249" value="" style="ellipse;html=1;shape=endState;fillColor=#000000;strokeColor=#000000;" vertex="1" parent="1">
          <mxGeometry x="385" y="925" width="30" height="30" as="geometry" />
        </mxCell>
        <mxCell id="E_MisQqpZ38DkiACrcF2-248" style="edgeStyle=orthogonalEdgeStyle;rounded=0;orthogonalLoop=1;jettySize=auto;html=1;" edge="1" parent="1" source="E_MisQqpZ38DkiACrcF2-247" target="E_MisQqpZ38DkiACrcF2-249">
          <mxGeometry relative="1" as="geometry">
            <mxPoint x="400" y="940" as="targetPoint" />
            <Array as="points">
              <mxPoint x="170" y="910" />
              <mxPoint x="401" y="910" />
            </Array>
          </mxGeometry>
        </mxCell>
      </root>
    </mxGraphModel>
  </diagram>
</mxfile>
